<svg viewBox="0 0 640 400" data-background-color="#ffffff" preserveAspectRatio="xMidYMid meet" height="400" width="640" xmlns="http://www.w3.org/2000/svg" xmlns:xlink="http://www.w3.org/1999/xlink"><rect width="640" height="400" x="0" y="0" opacity="1" fill="#ffffff" data-fill-palette-color="background" id="background"></rect><g id="tight-bounds" transform="matrix(1,0,0,1,160,20)"><svg viewBox="0 0 320 360" height="360" width="320"><g><svg></svg></g><g><svg viewBox="0 0 320 360" height="360" width="320"><g><path d="M307.925 179.999l6.575-11.387c11.322-19.607 4.604-44.679-15.003-56.001l-11.387-6.575v-13.151c0-22.639-18.354-40.994-40.994-40.994h-13.151l-6.575-11.387c-11.322-19.607-36.393-26.325-56.001-15.003l-11.39 6.572-11.387-6.576c-19.607-11.318-44.679-4.6-56.001 15.007l-6.575 11.387h-13.151c-22.639 0-40.994 18.354-40.994 40.994v13.151l-11.387 6.575c-19.607 11.322-26.325 36.393-15.003 56.001l6.572 11.387-6.576 11.387c-11.318 19.607-4.6 44.679 15.007 56l11.387 6.576v13.15c0 22.639 18.354 40.994 40.994 40.994h13.151l6.575 11.387c11.322 19.607 36.393 26.325 56.001 15.003l11.387-6.571 11.387 6.575c19.607 11.322 44.679 4.604 56-15.003l6.576-11.387h13.15c22.639 0 40.994-18.354 40.994-40.994v-13.151l11.387-6.575c19.607-11.322 26.325-36.393 15.003-56.001zM297.702 115.716c8.655 4.996 14.842 13.062 17.428 22.713 2.586 9.65 1.261 19.734-3.735 28.384l-5.538 9.596-17.747-30.74v-35.494zM251.155 271.155l-57.791 33.365h-66.731l-57.791-33.365-33.365-57.791v-66.731l33.365-57.791 57.791-33.365h66.731l57.791 33.365 33.365 57.791v66.731zM284.517 220.539v31.351l-27.151 15.676zM247.566 277.366l-15.676 27.151h-31.351zM187.15 308.106l-27.151 15.676-27.151-15.676zM119.459 304.517h-31.352l-15.676-27.151zM62.632 267.566l-27.151-15.676v-31.351zM31.891 207.15l-15.675-27.151 15.675-27.151zM35.481 139.459v-31.352l27.151-15.676zM72.431 82.632l15.676-27.151h31.352zM132.848 51.891l27.151-15.675 27.151 15.675zM200.539 55.481h31.351l15.676 27.151zM257.366 92.431l27.151 15.676v31.352zM288.106 152.848l15.676 27.151-15.676 27.151zM247.112 55.481c9.992 0 19.384 3.889 26.452 10.956 7.063 7.063 10.956 16.46 10.957 26.452v11.079l-30.741-17.747-17.747-30.74zM173.18 28.606c8.655-4.996 18.735-6.322 28.385-3.735 9.65 2.586 17.716 8.777 22.712 17.428l5.538 9.596h-35.494l-30.741-17.747zM95.716 42.295c4.996-8.655 13.062-14.842 22.713-17.428 9.65-2.586 19.734-1.261 28.384 3.736l9.596 5.537-30.74 17.747h-35.494zM35.481 92.885c0-9.992 3.889-19.384 10.956-26.452 7.063-7.063 16.46-10.956 26.452-10.956h11.079l-17.747 30.74-30.74 17.747zM8.606 166.817c-4.996-8.655-6.322-18.735-3.735-28.385 2.586-9.65 8.777-17.716 17.428-22.712l9.596-5.538v35.495l-17.747 30.74zM22.295 244.281c-8.655-4.996-14.842-13.062-17.428-22.712-2.586-9.65-1.261-19.734 3.736-28.385l5.537-9.596 17.747 30.74v35.495zM72.885 304.517c-9.992 0-19.384-3.889-26.452-10.957-7.063-7.063-10.956-16.46-10.956-26.451v-11.08l30.74 17.747 17.747 30.741zM146.817 331.391c-8.655 4.996-18.735 6.322-28.385 3.735-9.65-2.586-17.716-8.777-22.712-17.428l-5.538-9.596h35.495l30.74 17.747zM224.281 317.702c-4.996 8.655-13.062 14.842-22.712 17.428-9.65 2.586-19.734 1.261-28.385-3.735l-9.596-5.538 30.74-17.747h35.495zM284.517 267.112c0 9.992-3.889 19.384-10.957 26.452-7.063 7.063-16.46 10.956-26.451 10.957h-11.08l17.747-30.741 30.741-17.747zM315.13 221.565c-2.586 9.65-8.777 17.716-17.428 22.712l-9.596 5.538v-35.494l17.747-30.741 5.538 9.596c4.996 8.658 6.326 18.739 3.739 28.389z" fill="#01d28e" data-fill-palette-color="tertiary"></path></g><g transform="matrix(1,0,0,1,64,139.6898432183065)"><svg viewBox="0 0 192 80.62031356338701" height="80.62031356338701" width="192"><g><svg viewBox="0 0 192.95999999999998 81.02341513120393" height="80.62031356338701" width="192"><g><rect width="192.95999999999998" height="2.481640192628993" x="0" y="44.52690712530713" fill="#77d4fc" opacity="1" stroke-width="0" stroke="transparent" fill-opacity="1" class="rect-o-0" data-fill-palette-color="secondary" rx="1%" id="o-0" data-palette-color="#77d4fc"></rect></g><g transform="matrix(1,0,0,1,0.47999999999998977,53.504987612776425)"><svg viewBox="0 0 192 27.51842751842752" height="27.51842751842752" width="192"><g><svg viewBox="0 0 192 27.51842751842752" height="27.51842751842752" width="192"><g><svg viewBox="0 0 192 27.51842751842752" height="27.51842751842752" width="192"><g transform="matrix(1,0,0,1,0,0)"><svg width="192" viewBox="1.9000000953674316 -43.349998474121094 305.2200012207031 43.75" height="27.51842751842752" data-palette-color="#01d28e"><path d="M9.65 0L1.9 0 1.9-42.95 15-42.95 18.6-16.75 22.2-42.95 35.4-42.95 35.4 0 27.55 0 27.55-30.95 22.6 0 14.9 0 9.65-30.95 9.65 0ZM49.45 0.4Q44.25 0.4 41.55-2.78 38.85-5.95 38.85-11.7L38.85-11.7 38.85-32.15Q38.85-37.7 41.55-40.53 44.25-43.35 49.45-43.35L49.45-43.35Q54.65-43.35 57.35-40.53 60.05-37.7 60.05-32.15L60.05-32.15 60.05-11.7Q60.05-5.9 57.35-2.75 54.65 0.4 49.45 0.4L49.45 0.4ZM49.45-7.5Q50.6-7.5 51-8.5 51.4-9.5 51.4-11.3L51.4-11.3 51.4-32.3Q51.4-33.7 51.02-34.58 50.65-35.45 49.5-35.45L49.5-35.45Q47.35-35.45 47.35-32.2L47.35-32.2 47.35-11.25Q47.35-9.4 47.8-8.45 48.25-7.5 49.45-7.5L49.45-7.5ZM79.2 0L67.45 0 62.15-43 70.35-43 73.5-13.75 76.3-43 84.5-43 79.2 0ZM94.84 0L86.54 0 86.54-42.95 94.84-42.95 94.84 0ZM116.04 0L98.29 0 98.29-42.95 115.49-42.95 115.49-34.65 107.04-34.65 107.04-26.3 115.14-26.3 115.14-18.2 107.04-18.2 107.04-8.35 116.04-8.35 116.04 0ZM138.34 0L130.59 0 130.59-42.95 143.69-42.95 147.28-16.75 150.88-42.95 164.09-42.95 164.09 0 156.24 0 156.24-30.95 151.28 0 143.59 0 138.34-30.95 138.34 0ZM175.08 0L166.73 0 170.88-42.95 185.43-42.95 189.53 0 181.38 0 180.78-6.95 175.58-6.95 175.08 0ZM177.83-35.65L176.23-13.8 180.13-13.8 178.23-35.65 177.83-35.65ZM200.53 0L192.13 0 192.13-42.95 200.98-42.95 204.93-22.4 204.93-42.95 213.23-42.95 213.23 0 204.83 0 200.53-21.5 200.53 0ZM224.23 0L215.88 0 220.03-42.95 234.58-42.95 238.68 0 230.53 0 229.93-6.95 224.73-6.95 224.23 0ZM226.98-35.65L225.38-13.8 229.28-13.8 227.38-35.65 226.98-35.65ZM250.13 0.4Q245.48 0.4 243.2-2.88 240.93-6.15 240.93-12.8L240.93-12.8 240.93-31.3Q240.93-37.25 243.58-40.3 246.23-43.35 251.48-43.35L251.48-43.35Q255.73-43.35 258.08-41.65 260.43-39.95 261.33-36.7 262.23-33.45 262.23-28.35L262.23-28.35 253.83-28.35 253.83-32.2Q253.83-33.75 253.4-34.6 252.98-35.45 251.88-35.45L251.88-35.45Q249.43-35.45 249.43-32.25L249.43-32.25 249.43-11.45Q249.43-9.5 249.93-8.5 250.43-7.5 251.68-7.5L251.68-7.5Q252.93-7.5 253.43-8.5 253.93-9.5 253.93-11.45L253.93-11.45 253.93-17.6 251.63-17.6 251.63-25 262.13-25 262.13 0 258.68 0 257.23-3.6Q254.93 0.4 250.13 0.4L250.13 0.4ZM283.27 0L265.52 0 265.52-42.95 282.72-42.95 282.72-34.65 274.27-34.65 274.27-26.3 282.37-26.3 282.37-18.2 274.27-18.2 274.27-8.35 283.27-8.35 283.27 0ZM286.12 0L286.12-42.95 299.32-42.95Q302.47-42.95 304.2-41.53 305.92-40.1 306.52-37.52 307.12-34.95 307.12-30.95L307.12-30.95Q307.12-27.3 306.17-25.25 305.22-23.2 302.87-22.4L302.87-22.4Q304.82-22 305.7-20.45 306.57-18.9 306.57-16.25L306.57-16.25 306.47 0 298.07 0 298.07-16.8Q298.07-18.6 297.37-19.1 296.67-19.6 294.82-19.6L294.82-19.6 294.82 0 286.12 0ZM294.87-27.05L296.92-27.05Q298.72-27.05 298.72-30.95L298.72-30.95Q298.72-32.65 298.57-33.5 298.42-34.35 298.02-34.68 297.62-35 296.87-35L296.87-35 294.87-35 294.87-27.05Z" opacity="1" transform="matrix(1,0,0,1,0,0)" fill="#01d28e" class="undefined-text-0" data-fill-palette-color="primary" id="text-0"></path></svg></g></svg></g></svg></g></svg></g><g transform="matrix(1,0,0,1,69.46476658476658,0)"><svg viewBox="0 0 54.030466830466835 38.030466830466835" height="38.030466830466835" width="54.030466830466835"><g><svg xmlns="http://www.w3.org/2000/svg" xmlns:xlink="http://www.w3.org/1999/xlink" version="1.1" x="8" y="0" viewBox="0 0 100 100" style="enable-background:new 0 0 100 100;" xml:space="preserve" height="38.030466830466835" width="38.030466830466835" class="icon-icon-0" data-fill-palette-color="accent" id="icon-0"><path d="M87.427 25H75.086L87.5 12.549 75.232 0H57.837l12.464 12.451L57.531 25H42.773l12.684-12.451L42.92 0H25.244l12.451 12.451L24.927 25H12.402l12.695-12.451L12.549 0H0v100h100V0H87.744L100 12.5 87.427 25zM87.5 87.365h-75v-12.5h75V87.365zM87.5 62.5h-75V50h75V62.5z" fill="#01d28e" data-fill-palette-color="accent"></path></svg></g></svg></g><g><rect width="32.312766584766585" height="2.481640192628993" y="34.54882663783784" x="123.49523341523341" fill="#77d4fc" data-fill-palette-color="secondary"></rect><rect width="32.312766584766585" height="2.481640192628993" y="34.54882663783784" x="37.15199999999999" fill="#77d4fc" data-fill-palette-color="secondary"></rect></g></svg></g></svg></g></svg></g></svg><rect width="320" height="360" fill="none" stroke="none" visibility="hidden"></rect></g><defs></defs></svg>